<svg width="20" height="15" viewBox="0 0 20 15" fill="none" xmlns="http://www.w3.org/2000/svg">
<path d="M9.178 14.569C9.26974 14.7022 9.3925 14.8112 9.53569 14.8864C9.67889 14.9617 9.83823 15.001 10 15.001C10.1618 15.001 10.3211 14.9617 10.4643 14.8864C10.6075 14.8112 10.7303 14.7022 10.822 14.569L19.822 1.569C19.9262 1.41906 19.9873 1.24343 19.9986 1.0612C20.01 0.878979 19.9712 0.697122 19.8865 0.535393C19.8018 0.373663 19.6743 0.238247 19.518 0.143857C19.3617 0.0494666 19.1826 -0.000287775 19 -1.90858e-07H1C0.817845 0.000752218 0.63934 0.0511464 0.483682 0.145763C0.328025 0.240379 0.201104 0.375638 0.11657 0.536993C0.0320362 0.698348 -0.00691312 0.879695 0.00391084 1.06153C0.0147348 1.24337 0.0749225 1.41881 0.178001 1.569L9.178 14.569Z" fill="#4ECB71"/>
</svg>
